<svg width="33" height="23" viewBox="0 0 33 23" fill="none" xmlns="http://www.w3.org/2000/svg">
<path d="M19.6103 7.7122V6.16309C20.4969 5.71002 21.4461 5.37022 22.4581 5.14369C23.4701 4.91715 24.5091 4.80388 25.575 4.80388C26.1844 4.80388 26.7696 4.8433 27.3306 4.92215C27.8905 5.0021 28.4691 5.11426 29.0664 5.25862V6.77108C28.49 6.58563 27.929 6.45681 27.3834 6.38463C26.8356 6.31356 26.2328 6.27803 25.575 6.27803C24.508 6.27803 23.4674 6.39907 22.4532 6.64115C21.4368 6.88323 20.4886 7.24025 19.6086 7.7122M19.6086 16.8103V15.1945C20.4534 14.7426 21.3977 14.4033 22.4416 14.1768C23.4855 13.9502 24.53 13.837 25.575 13.837C26.1844 13.837 26.7696 13.877 27.3306 13.9569C27.8905 14.0346 28.4691 14.1462 29.0664 14.2917V15.8042C28.49 15.6187 27.929 15.4899 27.3834 15.4177C26.8356 15.3467 26.2328 15.3111 25.575 15.3111C24.508 15.3111 23.4674 15.4416 22.4532 15.7026C21.4368 15.9624 20.4886 16.3316 19.6086 16.8103ZM19.6086 12.2929V10.6788C20.4952 10.2257 21.4445 9.88649 22.4565 9.66107C23.4685 9.43564 24.508 9.32237 25.575 9.32126C26.1844 9.32126 26.769 9.36013 27.3289 9.43786C27.8899 9.51782 28.4685 9.63053 29.0647 9.776V11.2885C28.4894 11.1019 27.9284 10.9731 27.3817 10.902C26.835 10.8298 26.2328 10.7937 25.575 10.7937C24.508 10.7937 23.4674 10.9259 22.4532 11.1902C21.4368 11.4534 20.4886 11.8209 19.6086 12.2929ZM17.325 20.5847C18.6626 19.8318 20.0117 19.2877 21.3724 18.9523C22.7332 18.617 24.134 18.4504 25.575 18.4526C26.565 18.4526 27.4549 18.5143 28.2447 18.6375C29.0345 18.7608 29.7313 18.9251 30.3353 19.1306C30.5882 19.2372 30.8209 19.2211 31.0332 19.0823C31.2455 18.9435 31.3511 18.7247 31.35 18.426V3.40802C31.35 3.21591 31.2972 3.0449 31.1916 2.89499C31.086 2.74619 30.9061 2.61848 30.652 2.51188C29.7445 2.18651 28.919 1.96442 28.1754 1.8456C27.4318 1.72678 26.565 1.66626 25.575 1.66404C24.134 1.66404 22.6968 1.87836 21.2635 2.307C19.8291 2.73675 18.5163 3.38082 17.325 4.23921V20.5847ZM16.5 23C15.158 22.0739 13.717 21.3621 12.177 20.8646C10.637 20.3671 9.053 20.1183 7.425 20.1183C6.567 20.1183 5.7233 20.1905 4.8939 20.3349C4.0656 20.4804 3.2593 20.7135 2.475 21.0345C1.8766 21.2754 1.3145 21.2027 0.7887 20.8163C0.2629 20.4298 0 19.8951 0 19.2122V3.1132C0 2.70121 0.10725 2.31866 0.32175 1.96553C0.53625 1.6124 0.8371 1.36699 1.2243 1.22929C2.2 0.803978 3.2098 0.493047 4.2537 0.296495C5.2976 0.099942 6.3547 0.00111047 7.425 0C9.042 0 10.6183 0.234864 12.1539 0.704592C13.6917 1.17432 15.1404 1.85726 16.5 2.7534C17.8607 1.85726 19.3094 1.17432 20.8461 0.704592C22.3828 0.234864 23.9591 0 25.575 0C26.6453 0 27.7024 0.0988316 28.7463 0.296495C29.7913 0.493047 30.8011 0.803978 31.7757 1.22929C32.1629 1.3681 32.4637 1.61351 32.6782 1.96553C32.8927 2.31755 33 2.7001 33 3.1132V19.2122C33 19.894 32.7162 20.4176 32.1486 20.783C31.5799 21.1472 30.9749 21.2088 30.3336 20.9678C29.5713 20.668 28.7914 20.4515 27.9939 20.3182C27.1975 20.1839 26.3912 20.1167 25.575 20.1167C23.947 20.1167 22.363 20.3654 20.823 20.8629C19.283 21.3604 17.842 22.0722 16.5 22.9983" fill="#243C70"/>
</svg>
