<svg width="38" height="38" viewBox="0 0 38 38" fill="none" xmlns="http://www.w3.org/2000/svg">
<path d="M9.69224 9.69169C14.833 4.55126 23.1676 4.55177 28.3082 9.69238C33.4485 14.833 33.4485 23.167 28.3082 28.3076C23.1676 33.4482 14.833 33.4487 9.69224 28.3083C4.55153 23.1676 4.55153 14.8324 9.69224 9.69169Z" fill="#589B6E" stroke="white" stroke-width="0.542857"/>
<path d="M25.088 12.6092C25.0852 12.6099 25.0826 12.6106 25.0798 12.6113C24.8009 12.5306 25.0498 12.4883 23.91 12.8271L23.9217 12.8432C24.0155 12.8412 24.1093 12.8393 24.2031 12.8374C23.9125 12.9717 23.6227 13.1082 23.3287 13.2346C23.3081 13.2435 23.254 13.1745 23.2154 13.1417L23.2178 13.1492C22.5916 13.4111 22.0526 13.8125 21.5556 14.2591C16.6889 18.6323 16.0969 20.7098 15.1814 21.7707C12.7633 20.1945 13.6272 20.2858 11.7687 19.2502C11.4243 19.0583 11.1137 19.1712 10.9484 19.5281C10.7652 19.9238 10.8412 20.2563 11.3236 20.9378C12.678 22.8512 15.0953 24.7924 15.3038 24.8801C17.225 25.6889 16.4159 21.0374 24.4851 14.1415C24.876 13.8074 25.3197 13.5276 25.673 13.1594C25.9414 12.8796 26.2287 12.7427 26.5998 12.6917C25.9715 12.4008 25.9854 12.4608 25.088 12.6092Z" fill="white"/>
</svg>
