<svg width="22" height="23" viewBox="0 0 22 23" fill="none" xmlns="http://www.w3.org/2000/svg">
<g filter="url(#filter0_d_375_1173)">
<path d="M13.3232 21.0461C11.8932 22.118 9.95681 22.118 8.52681 21.0461L1.68213 15.9157C0.252128 14.8439 -0.346243 12.944 0.19997 11.2097L2.8144 2.9085C3.36062 1.1742 4.92717 0 6.69476 0H15.1552C16.9228 0 18.4894 1.17421 19.0356 2.9085L21.65 11.2097C22.1962 12.944 21.5979 14.8439 20.1679 15.9157L13.3232 21.0461Z" fill="url(#paint0_linear_375_1173)"/>
<path d="M6.69434 0.560547H15.1553C16.6684 0.56056 18.0254 1.56721 18.501 3.07715L21.1152 11.3779C21.5916 12.8905 21.0661 14.5411 19.8311 15.4668L12.9863 20.5977C11.7558 21.5196 10.0937 21.5198 8.86328 20.5977L2.01855 15.4668C0.783563 14.5411 0.258973 12.8905 0.735352 11.3779L3.34961 3.07715C3.82512 1.56734 5.18137 0.560733 6.69434 0.560547Z" stroke="white" stroke-opacity="0.4" stroke-width="1.12195"/>
</g>
<defs>
<filter id="filter0_d_375_1173" x="0" y="0" width="21.85" height="22.411" filterUnits="userSpaceOnUse" color-interpolation-filters="sRGB">
<feFlood flood-opacity="0" result="BackgroundImageFix"/>
<feColorMatrix in="SourceAlpha" type="matrix" values="0 0 0 0 0 0 0 0 0 0 0 0 0 0 0 0 0 0 127 0" result="hardAlpha"/>
<feOffset dy="0.560976"/>
<feComposite in2="hardAlpha" operator="out"/>
<feColorMatrix type="matrix" values="0 0 0 0 0.300741 0 0 0 0 0.171852 0 0 0 0 0.0192593 0 0 0 1 0"/>
<feBlend mode="normal" in2="BackgroundImageFix" result="effect1_dropShadow_375_1173"/>
<feBlend mode="normal" in="SourceGraphic" in2="effect1_dropShadow_375_1173" result="shape"/>
</filter>
<linearGradient id="paint0_linear_375_1173" x1="10.9253" y1="22.8436" x2="10.9253" y2="-2.4117" gradientUnits="userSpaceOnUse">
<stop stop-color="#F07E00"/>
<stop offset="1" stop-color="#F7F4CF"/>
</linearGradient>
</defs>
</svg>
