<svg width="31" height="31" viewBox="0 0 31 31" fill="none" xmlns="http://www.w3.org/2000/svg">
<path d="M9.02181 14.4866C8.59788 14.0626 7.90899 14.0626 7.48506 14.4866C7.06113 14.9105 7.06113 15.5994 7.48506 16.0233L12.4928 21.031C12.7047 21.243 12.9697 21.349 13.2611 21.349C13.2876 21.349 13.2876 21.349 13.3141 21.349C13.6056 21.3225 13.897 21.19 14.109 20.9515L26.6415 5.92844C27.0124 5.47802 26.9594 4.78913 26.509 4.39169C26.0586 4.02075 25.3697 4.07374 24.9722 4.52417L13.1816 18.6464L9.02181 14.4866Z" fill="#17AB13"/>
<path d="M23.4885 2.35128C17.3944 -1.46411 9.57821 -0.563254 4.49103 4.52393C-1.49701 10.512 -1.49701 20.2889 4.49103 26.2769C7.48504 29.2709 11.4329 30.7812 15.3543 30.7812C19.2756 30.7812 23.2235 29.2709 26.2175 26.2769C31.3312 21.1632 32.2056 13.3205 28.3637 7.22649C28.0457 6.72307 27.3833 6.5641 26.8799 6.88205C26.3765 7.19999 26.2175 7.86239 26.5355 8.36581C29.8474 13.612 29.0791 20.3419 24.6808 24.7402C19.5406 29.8803 11.1415 29.8803 6.00128 24.7402C0.861112 19.6 0.861112 11.2008 6.00128 6.06068C10.3996 1.68888 17.103 0.920507 22.3491 4.17948C22.8526 4.49743 23.515 4.33846 23.8329 3.83504C24.1509 3.33162 23.9919 2.66922 23.4885 2.35128Z" fill="#4A4A4A"/>
</svg>
