<svg width="34" height="34" viewBox="0 0 34 34" fill="none" xmlns="http://www.w3.org/2000/svg">
<path d="M16.7238 2.78723C24.4203 2.78742 30.6593 9.02714 30.6593 16.7238C30.6591 24.4202 24.4202 30.6591 16.7238 30.6593C9.02714 30.6593 2.78742 24.4203 2.78723 16.7238C2.78723 9.02702 9.02702 2.78723 16.7238 2.78723ZM16.7238 4.80481C10.1413 4.80481 4.80481 10.1413 4.80481 16.7238C4.805 23.306 10.1414 28.6417 16.7238 28.6417C23.3059 28.6415 28.6415 23.3059 28.6417 16.7238C28.6417 10.1414 23.306 4.805 16.7238 4.80481ZM20.9161 11.2667C21.6931 11.0238 22.423 11.7544 22.1798 12.5314L20.0382 19.3761C19.9394 19.6915 19.6915 19.9394 19.3761 20.0382L12.5314 22.1798C11.7544 22.423 11.0238 21.6931 11.2667 20.9161L13.4093 14.0704C13.5081 13.7551 13.7551 13.5081 14.0704 13.4093L20.9161 11.2667ZM15.1769 15.1769L13.7667 19.6788L18.2687 18.2687L19.6788 13.7667L15.1769 15.1769Z" fill="#C7C9D9"/>
</svg>
