<svg width="34" height="34" viewBox="0 0 34 34" fill="none" xmlns="http://www.w3.org/2000/svg">
<path opacity="0.4" d="M22.4031 2.78723H27.1219C29.0761 2.78723 30.6596 4.38411 30.6596 6.35484V11.1134C30.6596 13.0842 29.0761 14.681 27.1219 14.681H22.4031C20.4489 14.681 18.8654 13.0842 18.8654 11.1134V6.35484C18.8654 4.38411 20.4489 2.78723 22.4031 2.78723Z" fill="#2F387D"/>
<path d="M11.0441 18.7657C12.998 18.7659 14.581 20.3626 14.5812 22.3331V27.0919C14.5812 29.0612 12.9981 30.6591 11.0441 30.6593H6.32532C4.37109 30.6593 2.78723 29.0613 2.78723 27.0919V22.3331C2.78736 20.3625 4.37117 18.7657 6.32532 18.7657H11.0441ZM27.1222 18.7657C29.0762 18.7659 30.6592 20.3626 30.6593 22.3331V27.0919C30.6593 29.0612 29.0763 30.6591 27.1222 30.6593H22.4034C20.4492 30.6593 18.8654 29.0613 18.8654 27.0919V22.3331C18.8655 20.3625 20.4493 18.7657 22.4034 18.7657H27.1222ZM11.0441 2.78723C12.9981 2.78743 14.5811 4.38411 14.5812 6.35461V11.1134C14.5812 13.084 12.9981 14.6806 11.0441 14.6808H6.32532C4.37109 14.6808 2.78723 13.0841 2.78723 11.1134V6.35461C2.78735 4.38399 4.37117 2.78723 6.32532 2.78723H11.0441Z" fill="#2F387D"/>
</svg>
