<svg width="34" height="34" viewBox="0 0 34 34" fill="none" xmlns="http://www.w3.org/2000/svg">
<path opacity="0.4" d="M22.4031 2.78735H27.1218C29.0761 2.78735 30.6596 4.38423 30.6596 6.35496V11.1136C30.6596 13.0843 29.0761 14.6812 27.1218 14.6812H22.4031C20.4489 14.6812 18.8654 13.0843 18.8654 11.1136V6.35496C18.8654 4.38423 20.4489 2.78735 22.4031 2.78735Z" fill="#C7C9D9"/>
<path d="M11.0441 18.7659C12.998 18.7661 14.581 20.3628 14.5812 22.3333V27.092C14.5812 29.0613 12.9981 30.6592 11.0441 30.6594H6.32532C4.37109 30.6594 2.78723 29.0614 2.78723 27.092V22.3333C2.78736 20.3626 4.37117 18.7659 6.32532 18.7659H11.0441ZM27.1222 18.7659C29.0762 18.7661 30.6592 20.3628 30.6593 22.3333V27.092C30.6593 29.0613 29.0763 30.6592 27.1222 30.6594H22.4034C20.4492 30.6594 18.8654 29.0614 18.8654 27.092V22.3333C18.8655 20.3626 20.4493 18.7659 22.4034 18.7659H27.1222ZM11.0441 2.78735C12.9981 2.78755 14.5811 4.38423 14.5812 6.35474V11.1135C14.5812 13.0841 12.9981 14.6807 11.0441 14.6809H6.32532C4.37109 14.6809 2.78723 13.0843 2.78723 11.1135V6.35474C2.78735 4.38411 4.37117 2.78735 6.32532 2.78735H11.0441Z" fill="#C7C9D9"/>
</svg>
