<svg width="31" height="31" viewBox="0 0 31 31" fill="none" xmlns="http://www.w3.org/2000/svg">
<g clip-path="url(#clip0_165_1799)">
<path d="M10.0507 20.0773C9.76011 20.368 9.76011 20.8523 10.0507 21.143C10.3414 21.4336 10.8257 21.4336 11.1164 21.143L21.6999 10.3656C21.9906 10.075 21.9906 9.59063 21.6999 9.3C21.4093 9.00937 20.9249 9.00937 20.6343 9.3L10.0507 20.0773Z" fill="#FF0000"/>
<path d="M20.6343 21.143C20.9249 21.4336 21.4093 21.4336 21.6999 21.143C21.9906 20.8523 21.9906 20.368 21.6999 20.0773L11.1164 9.3C10.8257 9.00937 10.3414 9.00937 10.0507 9.3C9.76011 9.59063 9.76011 10.075 10.0507 10.3656L20.6343 21.143Z" fill="#FF0000"/>
<path d="M15.6453 30.7092C7.24143 30.7092 0.411743 23.8795 0.411743 15.4756C0.411743 7.07168 7.24143 0.217773 15.6453 0.217773C24.0492 0.217773 30.8789 7.04746 30.8789 15.4514C30.8789 23.8553 24.0492 30.7092 15.6453 30.7092ZM15.6453 1.6709C8.04065 1.6709 1.86487 7.8709 1.86487 15.4756C1.86487 23.0803 8.04065 29.2561 15.6453 29.2561C23.25 29.2561 29.4258 23.0803 29.4258 15.4756C29.4258 7.8709 23.25 1.6709 15.6453 1.6709Z" fill="black"/>
</g>
<defs>
<clipPath id="clip0_165_1799">
<rect width="31" height="31" fill="white"/>
</clipPath>
</defs>
</svg>
